<svg
	xmlns="http://www.w3.org/2000/svg"
	xmlns:cc="http://creativecommons.org/ns#"
	xmlns:dc="http://purl.org/dc/elements/1.1/"
	xmlns:rdf="http://www.w3.org/1999/02/22-rdf-syntax-ns#"
	width="16px"
	height="16px"
	version="1.1"
>
	<metadata>
		<rdf:RDF>
			<cc:Work rdf:about="">
				<dc:format>image/svg+xml</dc:format>
				<dc:title>3omns</dc:title>
				<dc:type rdf:resource="http://purl.org/dc/dcmitype/StillImage"/>
			</cc:Work>
		</rdf:RDF>
	</metadata>

	<rect x="0" y="0" width="16" height="16" fill="#000"/>
	<rect x="4" y="3" width="6" height="1" fill="#888"/>
	<rect x="3" y="4" width="1" height="1" fill="#888"/>
	<rect x="10" y="4" width="1" height="1" fill="#888"/>
	<rect x="2" y="5" width="1" height="1" fill="#888"/>
	<rect x="11" y="5" width="1" height="1" fill="#888"/>
	<rect x="1" y="6" width="1" height="6" fill="#888"/>
	<rect x="12" y="6" width="1" height="6" fill="#888"/>
	<rect x="2" y="12" width="1" height="1" fill="#888"/>
	<rect x="11" y="12" width="1" height="1" fill="#888"/>
	<rect x="3" y="13" width="1" height="1" fill="#888"/>
	<rect x="10" y="13" width="1" height="1" fill="#888"/>
	<rect x="4" y="14" width="6" height="1" fill="#888"/>
	<rect x="6" y="2" width="1" height="1" fill="#FFF"/>
	<rect x="7" y="1" width="5" height="1" fill="#FFF"/>
	<rect x="12" y="2" width="1" height="1" fill="#FFF"/>
	<rect x="13" y="3" width="1" height="1" fill="#FFF"/>
	<rect x="14" y="4" width="1" height="4" fill="#FFF"/>
	<path fill="#222" d="m4,4,6,0,0,1,1,0,0,1,1,0,0,6-1,0,0,1-1,0,0,1-6,0,0-1-1,0,0-1-1,0,0-6,1,0,0-1,1,0z"/>
	<path fill="#CCC" d="M9,6,9,7,10,7,10,8,8,8,8,6z"/>
</svg>
